<svg id="Capa_1" data-name="Capa 1" xmlns="http://www.w3.org/2000/svg" viewBox="0 0 142 142"><defs><style>.cls-1{fill:#ffc200;}</style></defs><title>circulos-secondary</title><g id="Grupo_41" data-name="Grupo 41"><ellipse id="Elipse_11" data-name="Elipse 11" class="cls-1" cx="58" cy="5.5" rx="6" ry="5.5"/><ellipse id="Elipse_11-2" data-name="Elipse 11-2" class="cls-1" cx="84" cy="5.5" rx="6" ry="5.5"/><circle id="Elipse_11-3" data-name="Elipse 11-3" class="cls-1" cx="110.5" cy="5.5" r="5.5"/><circle id="Elipse_11-4" data-name="Elipse 11-4" class="cls-1" cx="136.5" cy="5.5" r="5.5"/><ellipse id="Elipse_11-5" data-name="Elipse 11-5" class="cls-1" cx="58" cy="31.5" rx="6" ry="5.5"/><ellipse id="Elipse_11-6" data-name="Elipse 11-6" class="cls-1" cx="84" cy="31.5" rx="6" ry="5.5"/><circle id="Elipse_11-7" data-name="Elipse 11-7" class="cls-1" cx="110.5" cy="31.5" r="5.5"/><circle id="Elipse_11-8" data-name="Elipse 11-8" class="cls-1" cx="136.5" cy="31.5" r="5.5"/><circle id="Elipse_11-9" data-name="Elipse 11-9" class="cls-1" cx="58" cy="58" r="6"/><circle id="Elipse_11-10" data-name="Elipse 11-10" class="cls-1" cx="84" cy="58" r="6"/><ellipse id="Elipse_11-11" data-name="Elipse 11-11" class="cls-1" cx="110.5" cy="58" rx="5.5" ry="6"/><ellipse id="Elipse_11-12" data-name="Elipse 11-12" class="cls-1" cx="136.5" cy="58" rx="5.5" ry="6"/><circle id="Elipse_11-13" data-name="Elipse 11-13" class="cls-1" cx="58" cy="84" r="6"/><circle id="Elipse_11-14" data-name="Elipse 11-14" class="cls-1" cx="84" cy="84" r="6"/><ellipse id="Elipse_11-15" data-name="Elipse 11-15" class="cls-1" cx="110.5" cy="84" rx="5.5" ry="6"/><ellipse id="Elipse_11-16" data-name="Elipse 11-16" class="cls-1" cx="136.5" cy="84" rx="5.5" ry="6"/><ellipse id="Elipse_11-17" data-name="Elipse 11-17" class="cls-1" cx="58" cy="110.5" rx="6" ry="5.5"/><ellipse id="Elipse_11-18" data-name="Elipse 11-18" class="cls-1" cx="84" cy="110.5" rx="6" ry="5.5"/><circle id="Elipse_11-19" data-name="Elipse 11-19" class="cls-1" cx="110.5" cy="110.5" r="5.5"/><circle id="Elipse_11-20" data-name="Elipse 11-20" class="cls-1" cx="136.5" cy="110.5" r="5.5"/><ellipse id="Elipse_11-21" data-name="Elipse 11-21" class="cls-1" cx="58" cy="136.5" rx="6" ry="5.5"/><ellipse id="Elipse_11-22" data-name="Elipse 11-22" class="cls-1" cx="84" cy="136.5" rx="6" ry="5.5"/><circle id="Elipse_11-23" data-name="Elipse 11-23" class="cls-1" cx="110.5" cy="136.5" r="5.5"/><circle id="Elipse_11-24" data-name="Elipse 11-24" class="cls-1" cx="136.5" cy="136.5" r="5.5"/><circle id="Elipse_11-25" data-name="Elipse 11-25" class="cls-1" cx="5.5" cy="5.5" r="5.5"/><circle id="Elipse_11-26" data-name="Elipse 11-26" class="cls-1" cx="31.5" cy="5.5" r="5.5"/><circle id="Elipse_11-27" data-name="Elipse 11-27" class="cls-1" cx="5.5" cy="31.5" r="5.5"/><circle id="Elipse_11-28" data-name="Elipse 11-28" class="cls-1" cx="31.5" cy="31.5" r="5.5"/><ellipse id="Elipse_11-29" data-name="Elipse 11-29" class="cls-1" cx="5.5" cy="58" rx="5.5" ry="6"/><ellipse id="Elipse_11-30" data-name="Elipse 11-30" class="cls-1" cx="31.5" cy="58" rx="5.5" ry="6"/><ellipse id="Elipse_11-31" data-name="Elipse 11-31" class="cls-1" cx="5.5" cy="84" rx="5.5" ry="6"/><ellipse id="Elipse_11-32" data-name="Elipse 11-32" class="cls-1" cx="31.5" cy="84" rx="5.5" ry="6"/><circle id="Elipse_11-33" data-name="Elipse 11-33" class="cls-1" cx="5.5" cy="110.5" r="5.5"/><circle id="Elipse_11-34" data-name="Elipse 11-34" class="cls-1" cx="31.5" cy="110.5" r="5.5"/><circle id="Elipse_11-35" data-name="Elipse 11-35" class="cls-1" cx="5.5" cy="136.5" r="5.5"/><circle id="Elipse_11-36" data-name="Elipse 11-36" class="cls-1" cx="31.5" cy="136.5" r="5.5"/></g></svg>