<svg viewBox="-56 0 512 512.00002" xmlns="http://www.w3.org/2000/svg"><path d="m209.324219 403.765625c-.25-.613281-.5625-1.191406-.921875-1.734375-.371094-.546875-.789063-1.058594-1.25-1.519531-.460938-.460938-.972656-.878907-1.523438-1.242188-.539062-.359375-1.117187-.667969-1.71875-.917969-.609375-.25-1.242187-.453124-1.871094-.570312-1.292968-.261719-2.625-.261719-3.914062 0-.640625.117188-1.269531.320312-1.871094.570312-.609375.25-1.191406.558594-1.730468.917969-.550782.363281-1.0625.78125-1.523438 1.242188-.460938.460937-.878906.972656-1.238281 1.519531-.363281.542969-.671875 1.121094-.921875 1.734375-.25.597656-.441406 1.230469-.570313 1.871094-.132812.640625-.199219 1.300781-.199219 1.949219 0 .652343.066407 1.3125.199219 1.953124.128907.640626.320313 1.269532.570313 1.882813.25.597656.558594 1.179687.921875 1.71875.359375.550781.777343 1.0625 1.238281 1.523437.460938.460938.972656.878907 1.523438 1.238282.539062.363281 1.121093.671875 1.730468.921875.601563.25 1.230469.449219 1.871094.582031.640625.117188 1.300781.1875 1.953125.1875.648437 0 1.308594-.070312 1.960937-.1875.628907-.132812 1.261719-.332031 1.871094-.582031.601563-.25 1.179688-.558594 1.71875-.921875.550782-.359375 1.0625-.777344 1.523438-1.238282.460937-.460937.878906-.972656 1.25-1.523437.359375-.539063.671875-1.121094.921875-1.71875.25-.613281.441406-1.242187.570312-1.882813.128907-.640624.191407-1.300781.191407-1.953124 0-.648438-.0625-1.308594-.191407-1.949219-.128906-.640625-.320312-1.273438-.570312-1.871094zm0 0"/><path d="m80.992188 45.246094c.25.597656.5625 1.179687.921874 1.71875.371094.550781.78125 1.0625 1.25 1.523437.460938.457031.972657.878907 1.523438 1.25.539062.359375 1.121094.671875 1.71875.921875.613281.25 1.230469.4375 1.871094.570313.652344.128906 1.3125.1875 1.964844.1875 2.628906 0 5.210937-1.070313 7.074218-2.929688.460938-.460937.878906-.972656 1.242188-1.523437.359375-.539063.667968-1.121094.917968-1.71875.25-.613282.441407-1.242188.570313-1.875.132813-.648438.203125-1.308594.203125-1.960938 0-.648437-.070312-1.308594-.203125-1.949218-.128906-.640626-.320313-1.273438-.570313-1.871094-.25-.613282-.558593-1.191406-.917968-1.734375-.363282-.550781-.78125-1.058594-1.242188-1.519531-.460937-.460938-.972656-.878907-1.523437-1.242188-.539063-.359375-1.128907-.667969-1.730469-.917969-.597656-.25-1.230469-.441406-1.871094-.570312-1.289062-.261719-2.621094-.261719-3.914062 0-.640625.128906-1.257813.320312-1.871094.570312-.597656.25-1.179688.558594-1.71875.917969-.550781.363281-1.0625.78125-1.523438 1.242188-.46875.460937-.878906.96875-1.25 1.519531-.359374.542969-.671874 1.121093-.921874 1.734375-.25.597656-.4375 1.230468-.570313 1.871094-.128906.640624-.1875 1.300781-.1875 1.949218 0 .652344.058594 1.3125.1875 1.960938.132813.632812.320313 1.261718.570313 1.875zm0 0"/><path d="m129.933594 51.421875h180.949218c5.527344 0 10.007813-4.480469 10.007813-10.007813 0-5.527343-4.480469-10.007812-10.007813-10.007812h-180.949218c-5.527344 0-10.007813 4.480469-10.007813 10.007812 0 5.527344 4.480469 10.007813 10.007813 10.007813zm0 0"/><path d="m192.539062 200.753906h115.867188c5.527344 0 10.007812-4.480468 10.007812-10.007812 0-5.523438-4.480468-10.007813-10.007812-10.007813h-115.867188c-5.527343 0-10.007812 4.484375-10.007812 10.007813 0 5.527344 4.480469 10.007812 10.007812 10.007812zm0 0"/><path d="m249.902344 260.960938h-57.363282c-5.527343 0-10.007812 4.484374-10.007812 10.007812 0 5.527344 4.480469 10.007812 10.007812 10.007812h57.363282c5.527344 0 10.007812-4.480468 10.007812-10.007812 0-5.523438-4.480468-10.007812-10.007812-10.007812zm0 0"/><path d="m249.902344 300.835938h-57.363282c-5.527343 0-10.007812 4.480468-10.007812 10.007812s4.480469 10.007812 10.007812 10.007812h57.363282c5.527344 0 10.007812-4.480468 10.007812-10.007812s-4.480468-10.007812-10.007812-10.007812zm0 0"/><path d="m296.960938 260.394531c-15.695313 0-28.464844 12.765625-28.464844 28.460938 0 15.691406 12.769531 28.460937 28.464844 28.460937 15.691406 0 28.460937-12.769531 28.460937-28.460937 0-15.695313-12.769531-28.460938-28.460937-28.460938zm0 36.90625c-4.660157 0-8.449219-3.789062-8.449219-8.445312s3.789062-8.445313 8.449219-8.445313c4.65625 0 8.445312 3.789063 8.445312 8.445313s-3.789062 8.445312-8.445312 8.445312zm0 0"/><path d="m150.128906 112.796875c.128906.640625.320313 1.269531.570313 1.871094.25.609375.558593 1.191406.917969 1.730469.363281.550781.78125 1.0625 1.242187 1.523437s.972656.878906 1.519531 1.238281c.542969.363282 1.121094.671875 1.734375.921875.597657.25 1.230469.449219 1.871094.570313.640625.132812 1.300781.199218 1.949219.199218.652344 0 1.3125-.066406 1.953125-.199218.640625-.121094 1.269531-.320313 1.882812-.570313.597657-.25 1.179688-.558593 1.71875-.921875.550781-.359375 1.0625-.777344 1.523438-1.238281.460937-.460937.878906-.972656 1.238281-1.523437.371094-.539063.671875-1.121094.921875-1.730469.25-.601563.449219-1.230469.570313-1.871094.128906-.640625.199218-1.300781.199218-1.953125 0-.648438-.070312-1.308594-.199218-1.949219-.121094-.640625-.320313-1.269531-.570313-1.882812-.25-.597657-.550781-1.179688-.921875-1.71875-.359375-.550781-.777344-1.0625-1.238281-1.523438-.460938-.460937-.972657-.878906-1.523438-1.242187-.539062-.359375-1.121093-.667969-1.71875-.917969-.613281-.25-1.242187-.453125-1.882812-.582031-1.292969-.25-2.613281-.25-3.902344 0-.640625.128906-1.273437.332031-1.871094.582031-.613281.25-1.191406.558594-1.734375.917969-.546875.363281-1.058594.78125-1.519531 1.242187-.460937.460938-.878906.972657-1.242187 1.523438-.359376.539062-.667969 1.121093-.917969 1.71875-.25.613281-.441407 1.242187-.570313 1.882812-.132812.640625-.203125 1.300781-.203125 1.949219 0 .652344.070313 1.3125.203125 1.953125zm0 0"/><path d="m190.730469 114.667969c.25.609375.558593 1.191406.917969 1.730469.363281.550781.78125 1.0625 1.242187 1.523437s.972656.878906 1.519531 1.238281c.542969.363282 1.121094.671875 1.734375.921875.597657.25 1.230469.449219 1.871094.570313.640625.132812 1.300781.199218 1.949219.199218.652344 0 1.3125-.066406 1.953125-.199218.640625-.121094 1.269531-.320313 1.882812-.570313.597657-.25 1.179688-.558593 1.71875-.921875.550781-.359375 1.0625-.777344 1.523438-1.238281.460937-.460937.878906-.972656 1.238281-1.523437.363281-.539063.671875-1.121094.921875-1.730469.25-.601563.449219-1.230469.582031-1.871094.128906-.640625.1875-1.300781.1875-1.953125 0-.648438-.058594-1.308594-.1875-1.949219-.132812-.640625-.332031-1.269531-.582031-1.882812-.25-.597657-.558594-1.179688-.921875-1.71875-.359375-.550781-.777344-1.0625-1.238281-1.523438-.460938-.460937-.972657-.878906-1.523438-1.242187-.539062-.359375-1.121093-.667969-1.71875-.917969-.613281-.25-1.242187-.453125-1.882812-.582031-1.28125-.25-2.613281-.25-3.902344 0-.640625.128906-1.273437.332031-1.871094.582031-.613281.25-1.191406.558594-1.734375.917969-.546875.363281-1.058594.78125-1.519531 1.242187-.460937.460938-.878906.972657-1.242187 1.523438-.359376.539062-.667969 1.121093-.917969 1.71875-.25.613281-.441407 1.242187-.570313 1.882812-.132812.640625-.203125 1.300781-.203125 1.949219 0 .652344.070313 1.3125.203125 1.953125.128906.640625.320313 1.269531.570313 1.871094zm0 0"/><path d="m230.761719 114.667969c.25.609375.558593 1.191406.917969 1.730469.363281.550781.78125 1.0625 1.242187 1.523437s.972656.878906 1.519531 1.238281c.542969.363282 1.121094.671875 1.734375.921875.597657.25 1.230469.449219 1.871094.570313.640625.132812 1.300781.199218 1.949219.199218.652344 0 1.3125-.066406 1.953125-.199218.640625-.121094 1.269531-.320313 1.871093-.570313.609376-.25 1.191407-.558593 1.730469-.921875.550781-.359375 1.0625-.777344 1.523438-1.238281.460937-.460937.878906-.972656 1.238281-1.523437.363281-.539063.671875-1.121094.921875-1.730469.25-.601563.449219-1.230469.570313-1.871094.128906-.640625.199218-1.300781.199218-1.953125 0-.648438-.070312-1.308594-.199218-1.949219-.121094-.640625-.320313-1.269531-.570313-1.871093-.25-.609376-.558594-1.191407-.921875-1.730469-.359375-.550781-.777344-1.0625-1.238281-1.523438-.460938-.460937-.972657-.878906-1.523438-1.242187-.539062-.367188-1.121093-.667969-1.730469-.917969-.601562-.25-1.230468-.453125-1.871093-.570313-1.292969-.261718-2.613281-.261718-3.902344 0-.640625.117188-1.273437.320313-1.871094.570313-.613281.25-1.191406.550781-1.734375.917969-.546875.363281-1.058594.78125-1.519531 1.242187-.460937.460938-.878906.972657-1.242187 1.523438-.359376.539062-.667969 1.121093-.917969 1.730469-.25.601562-.441407 1.230468-.570313 1.871093-.132812.640625-.203125 1.300781-.203125 1.949219 0 .652344.070313 1.3125.203125 1.953125.128906.640625.320313 1.269531.570313 1.871094zm0 0"/><path d="m77.5625 280.410156h43.53125c5.527344 0 10.007812-4.480468 10.007812-10.007812s-4.480468-10.007813-10.007812-10.007813h-43.53125c-5.527344 0-10.007812 4.480469-10.007812 10.007813s4.480468 10.007812 10.007812 10.007812zm0 0"/><path d="m121.09375 300.996094h-43.53125c-5.527344 0-10.007812 4.480468-10.007812 10.007812 0 5.523438 4.480468 10.007813 10.007812 10.007813h43.53125c5.527344 0 10.007812-4.484375 10.007812-10.007813 0-5.527344-4.480468-10.007812-10.007812-10.007812zm0 0"/><path d="m400.15625 207.734375c0-21.371094-17.019531-38.832031-38.21875-39.574219v-158.152344c0-5.527343-4.480469-10.007812-10.007812-10.007812h-303.703126c-5.527343 0-10.007812 4.480469-10.007812 10.007812v158.152344c-21.199219.738282-38.21875 18.199219-38.21875 39.574219l.15625 199.148437c0 21.839844 17.769531 39.605469 39.609375 39.605469h93.402344l-4.640625 45.496094h-23.484375c-5.527344 0-10.007813 4.480469-10.007813 10.007813 0 5.527343 4.480469 10.007812 10.007813 10.007812h32.515625.019531.023437 124.957032.019531.019531 32.515625c5.527344 0 10.007813-4.480469 10.007813-10.007812 0-5.527344-4.480469-10.007813-10.007813-10.007813h-23.484375l-4.636718-45.496094h93.707031c21.84375 0 39.613281-17.765625 39.613281-39.605469zm-341.921875 126.472656v-93.625h81.875v93.625zm283.6875-193.5h-283.6875v-60.046875h283.6875zm-283.6875 30.570313 24.714844 19.367187-24.714844 19.371094zm40.9375 6.652344-21.953125-17.207032h43.90625zm40.9375-6.652344v38.738281l-24.714844-19.371094zm-40.9375 32.082031 21.953125 17.207031h-43.90625zm60.953125-42.636719h181.796875v173.484375h-181.796875zm181.796875-140.707031v40.628906h-283.6875v-40.628906zm-321.90625 187.71875c0-10.335937 8.046875-18.804687 18.203125-19.523437v156.003906c0 5.527344 4.480469 10.007812 10.007812 10.007812h303.703126c5.527343 0 10.007812-4.480468 10.007812-10.007812v-156c10.15625.722656 18.203125 9.1875 18.203125 19.519531v163.378906h-360.125zm231.492187 284.25h-102.859374l4.636718-45.496094h93.585938zm109.1875-65.511719h-104.769531c-.007812 0-.011719 0-.019531 0h-111.652344c-.007812 0-.019531 0-.027344 0h-104.460937c-10.804687 0-19.59375-8.789062-19.59375-19.589844v-15.753906h360.125v15.753906c0 10.800782-8.792969 19.589844-19.601563 19.589844zm0 0"/><path d="m192.539062 240.917969h20.351563c5.527344 0 10.007813-4.480469 10.007813-10.007813s-4.480469-10.007812-10.007813-10.007812h-20.351563c-5.527343 0-10.007812 4.480468-10.007812 10.007812s4.480469 10.007813 10.007812 10.007813zm0 0"/><path d="m308.40625 220.902344h-15.453125c-5.527344 0-10.007813 4.480468-10.007813 10.007812s4.480469 10.007813 10.007813 10.007813h15.453125c5.527344 0 10.007812-4.480469 10.007812-10.007813s-4.480468-10.007812-10.007812-10.007812zm0 0"/><path d="m258.140625 222.253906c-.539063-.363281-1.121094-.671875-1.71875-.921875-.613281-.25-1.242187-.441406-1.882813-.570312-1.28125-.261719-2.613281-.261719-3.902343 0-.640625.128906-1.273438.320312-1.871094.570312-.613281.25-1.191406.558594-1.734375.921875-.546875.367188-1.058594.78125-1.519531 1.25-1.863281 1.859375-2.933594 4.433594-2.933594 7.066406 0 .660157.070313 1.308594.203125 1.960938.117188.640625.320312 1.269531.570312 1.871094.25.601562.558594 1.179687.917969 1.730468.363281.542969.78125 1.0625 1.242188 1.523438.460937.457031.972656.878906 1.519531 1.238281.542969.363281 1.121094.671875 1.734375.921875.597656.25 1.230469.441406 1.871094.570313.640625.128906 1.300781.191406 1.949219.191406.652343 0 1.3125-.0625 1.953124-.191406.640626-.128907 1.269532-.320313 1.882813-.570313.597656-.25 1.179687-.558594 1.71875-.921875.550781-.359375 1.0625-.78125 1.523437-1.238281.460938-.460938.878907-.980469 1.238282-1.523438.363281-.550781.671875-1.128906.921875-1.730468.25-.601563.449219-1.230469.582031-1.871094.128906-.652344.1875-1.300781.1875-1.960938 0-2.632812-1.070312-5.207031-2.929688-7.066406-.460937-.46875-.972656-.882812-1.523437-1.25zm0 0"/></svg>