<svg height="512" viewBox="0 0 64 64" width="512" xmlns="http://www.w3.org/2000/svg">
    <path d="m33.343 16.343a8 8 0 1 0 11.314 0 8.01 8.01 0 0 0 -11.314 0zm9.9 9.9a6 6 0 1 1 0-8.486 6.01 6.01 0 0 1 0 8.486z"/>
    <path d="m61 54h-2v-9.574l2.627-2.626a2 2 0 0 0 0-2.828l-2.627-2.628v-15.344a5.006 5.006 0 0 0 -5-5h-1v-11a3 3 0 0 0 -3-3h-36a3 3 0 0 0 -3 3v11h-1a5.006 5.006 0 0 0 -5 5v33h-2a1 1 0 0 0 -1 1v4a3 3 0 0 0 3 3h54a3 3 0 0 0 3-3v-4a1 1 0 0 0 -1-1zm-3.615-10.787-5.657-5.657 2.828-2.828 5.658 5.656zm-44.385-31.213h19.367a11.993 11.993 0 0 0 12.718 20.328l1.693 1.693a1 1 0 0 0 0 1.414l4.222 4.221v3.344a1 1 0 0 1 -1 1h-36a1 1 0 0 1 -1-1zm35.9 22.728 2.828-2.828 1.414 1.415-2.828 2.828zm-2.828-5.657a10 10 0 1 1 0-14.142 10.011 10.011 0 0 1 -.001 14.142zm1.414 1.414c.239-.238.458-.49.672-.743l1.45 1.45-1.415 1.415-1.45-1.45c.257-.214.504-.433.742-.672zm3.514-.727-1.672-1.673a11.987 11.987 0 0 0 -3.695-16.085h5.367zm3-11.758a3 3 0 0 1 3 3v13.344l-4-4v-12.344zm-40-14h36a1 1 0 0 1 1 1v5h-38v-5a1 1 0 0 1 1-1zm-7 17a3 3 0 0 1 3-3h1v25a3 3 0 0 0 3 3h36a3 3 0 0 0 3-3v-1.344l2.971 2.971a1.987 1.987 0 0 0 1.029.547v8.826h-50zm29 35a1 1 0 0 1 -1 1h-6a1 1 0 0 1 -1-1zm24 3a1 1 0 0 1 -1 1h-54a1 1 0 0 1 -1-1v-3h22a3 3 0 0 0 3 3h6a3 3 0 0 0 3-3h22z"/>
    <path d="m15 6h2v2h-2z"/>
    <path d="m19 6h2v2h-2z"/>
    <path d="m23 6h2v2h-2z"/>
    <path d="m16 22h8a1 1 0 0 0 1-1v-6a1 1 0 0 0 -1-1h-8a1 1 0 0 0 -1 1v6a1 1 0 0 0 1 1zm1-6h6v4h-6z"/>
    <path d="m16 32h8a1 1 0 0 0 1-1v-6a1 1 0 0 0 -1-1h-8a1 1 0 0 0 -1 1v6a1 1 0 0 0 1 1zm1-6h6v4h-6z"/>
    <path d="m16 42h8a1 1 0 0 0 1-1v-6a1 1 0 0 0 -1-1h-8a1 1 0 0 0 -1 1v6a1 1 0 0 0 1 1zm1-6h6v4h-6z"/>
    <path d="m27 36h4v2h-4z"/>
    <path d="m33 36h12v2h-12z"/>
    <path d="m27 40h18v2h-18z"/>
    <path d="m29 49h2v2h-2z"/>
    <path d="m25 49h2v2h-2z"/>
    <path d="m33 49h2v2h-2z"/>
    <path d="m37 49h2v2h-2z"/>
</svg>