<svg xmlns="http://www.w3.org/2000/svg" viewBox="0 0 1748.41 468.66"><defs><style>.cls-1{font-size:165.32px;font-family:Poppins-Medium, Poppins;font-weight:500;}.cls-1,.cls-9{fill:#fff;}.cls-2{font-size:68.31px;font-family:Raleway-Regular, Raleway;}.cls-2,.cls-8{fill:#facc00;}.cls-3{letter-spacing:-0.03em;}.cls-4{letter-spacing:0em;}.cls-5{letter-spacing:-0.01em;}.cls-6{letter-spacing:-0.01em;}.cls-7{letter-spacing:-0.03em;}</style></defs><title>Recurso 2</title><g id="Capa_2" data-name="Capa 2"><g id="Capa_1-2" data-name="Capa 1"><text class="cls-1" transform="translate(633.2 235.26)">ristian Bernal</text><text class="cls-2" transform="translate(520.2 351)">DISEÑADOR<tspan class="cls-3" x="392.53" y="0" xml:space="preserve"> Y</tspan><tspan class="cls-4" x="449.78" y="0" xml:space="preserve"> D</tspan><tspan class="cls-5" x="516.04" y="0">E</tspan><tspan class="cls-6" x="556.62" y="0">S</tspan><tspan class="cls-4" x="597.27" y="0">ARROLLADOR</tspan><tspan class="cls-7" x="1054.56" y="0"> </tspan><tspan class="cls-4" x="1069.65" y="0">WEB</tspan></text><path class="cls-8" d="M247.08,407.34C144.7,414.82,60.86,335.68,60.86,233V77a.13.13,0,0,0-.21-.08A233.58,233.58,0,0,0,0,234.39C0,363.71,104.82,468.66,234.27,468.66a233.33,233.33,0,0,0,139.91-46.32,30.28,30.28,0,0,0,3.36-45.7l-.26-.27a30.28,30.28,0,0,0-39.49-2.86A172.59,172.59,0,0,1,247.08,407.34Z"/><path class="cls-8" d="M375.79,47.55A233.63,233.63,0,0,0,235.22,0a.18.18,0,0,0-.18.18V60.8a.18.18,0,0,0,.18.18,172.5,172.5,0,0,1,103.43,35,30.39,30.39,0,0,0,39.89-2.6l.46-.46A30.12,30.12,0,0,0,375.79,47.55Z"/><path class="cls-8" d="M234.27,117.52a116,116,0,0,0-58,15.34A117.45,117.45,0,0,0,119.9,210a117.39,117.39,0,0,1,56.35-77.15V7.22a234.29,234.29,0,0,0-58.92,24.11V234.46A116.94,116.94,0,1,0,234.27,117.52Zm0,175a58,58,0,1,1,58-58A58,58,0,0,1,234.27,292.48Z"/><path class="cls-9" d="M624.18,214.66a10.36,10.36,0,0,1,.21,2.33,9,9,0,0,1-3.64,6.88q-1.46,1.09-3,2.1a59,59,0,1,1,.81-97.94c.71.49,1.41,1,2.09,1.5a9.69,9.69,0,0,1,4,7.91c0,.13,0,.26,0,.4a10,10,0,0,1-9.59,9.38h-.49a8.19,8.19,0,0,1-4.94-1.77c-.89-.69-1.81-1.35-2.76-2a40,40,0,1,0,.25,67.07q1.32-.87,2.55-1.83a8,8,0,0,1,4.46-1.73,10.18,10.18,0,0,1,2.83.25A9.62,9.62,0,0,1,624.18,214.66Z"/></g></g></svg>