<svg id="Capa_1" data-name="Capa 1" xmlns="http://www.w3.org/2000/svg" viewBox="0 0 1748.41 468.66"><defs><style>.cls-1{font-size:165.32px;font-family:Poppins-Medium, Poppins;font-weight:500;}.cls-2{font-size:68.31px;font-family:Raleway-Regular, Raleway;}.cls-2,.cls-8{fill:#facc00;}.cls-3{letter-spacing:-0.03em;}.cls-4{letter-spacing:0em;}.cls-5{letter-spacing:-0.01em;}.cls-6{letter-spacing:-0.01em;}.cls-7{letter-spacing:-0.03em;}</style></defs><title>logo</title><text class="cls-1" transform="translate(520.2 234.26)">Cristian Bernal</text><text class="cls-2" transform="translate(520.2 351)">DISEÑADOR<tspan class="cls-3" x="392.53" y="0" xml:space="preserve"> Y</tspan><tspan class="cls-4" x="449.78" y="0" xml:space="preserve"> D</tspan><tspan class="cls-5" x="516.04" y="0">E</tspan><tspan class="cls-6" x="556.62" y="0">S</tspan><tspan class="cls-4" x="597.27" y="0">ARROLLADOR</tspan><tspan class="cls-7" x="1054.56" y="0"> </tspan><tspan class="cls-4" x="1069.65" y="0">WEB</tspan></text><path class="cls-8" d="M332.87,712.61C230.5,720.09,146.65,641,146.65,538.31v-156a.11.11,0,0,0-.2-.08A233.54,233.54,0,0,0,85.79,539.67c0,129.31,104.82,234.26,234.27,234.26A233.3,233.3,0,0,0,460,727.62a30.28,30.28,0,0,0,3.36-45.71l-.26-.26a30.25,30.25,0,0,0-39.49-2.86A172.46,172.46,0,0,1,332.87,712.61Z" transform="translate(-85.79 -305.27)"/><path class="cls-8" d="M461.59,352.82A233.68,233.68,0,0,0,321,305.27a.2.2,0,0,0-.19.19v60.62a.18.18,0,0,0,.18.18,172.38,172.38,0,0,1,103.43,34.95,30.4,30.4,0,0,0,39.9-2.6l.45-.45A30.14,30.14,0,0,0,461.59,352.82Z" transform="translate(-85.79 -305.27)"/><path class="cls-8" d="M320.06,422.79A116.88,116.88,0,1,0,437,539.73,116,116,0,0,0,320.06,422.79Zm0,175a58,58,0,1,1,58-58A58,58,0,0,1,320.06,597.75Z" transform="translate(-85.79 -305.27)"/><path class="cls-8" d="M262,438.07V312.49a234.29,234.29,0,0,0-58.92,24.11V539.67A117.1,117.1,0,0,1,262,438.07Z" transform="translate(-85.79 -305.27)"/></svg>