<svg id="Capa_1" data-name="Capa 1" xmlns="http://www.w3.org/2000/svg" viewBox="0 0 439.51 118.83"><defs><style>.cls-1,.cls-4{fill:#ffc200;}.cls-2{font-size:45.13px;fill:#fff;font-family:Raleway-SemiBold, Raleway;font-weight:600;}.cls-3{letter-spacing:-0.03em;}.cls-4{font-size:17.33px;font-family:Raleway-Regular, Raleway;}.cls-5{letter-spacing:-0.03em;}.cls-6{letter-spacing:-0.02em;}.cls-7{letter-spacing:-0.01em;}.cls-8{letter-spacing:0em;}.cls-9{letter-spacing:-0.03em;}</style></defs><title>logo</title><path class="cls-1" d="M104.7,188.31a44,44,0,0,1-44-44v-40a59.41,59.41,0,0,0,86.1,81.85L135.92,175.3A43.83,43.83,0,0,1,104.7,188.31Z" transform="translate(-45.31 -84.91)"/><path class="cls-1" d="M147.14,102.72A59.33,59.33,0,0,0,104.9,84.91v15.46a43.71,43.71,0,0,1,31.29,13.3Z" transform="translate(-45.31 -84.91)"/><path class="cls-1" d="M104.7,114.7a29.64,29.64,0,1,0,29.65,29.65A29.46,29.46,0,0,0,104.7,114.7Zm0,44.36a14.71,14.71,0,1,1,14.72-14.71A14.71,14.71,0,0,1,104.7,159.06Z" transform="translate(-45.31 -84.91)"/><path class="cls-1" d="M90,118.58V86.74a59.35,59.35,0,0,0-14.94,6.11v51.49A29.7,29.7,0,0,1,90,118.58Z" transform="translate(-45.31 -84.91)"/><text class="cls-2" transform="translate(127.15 59.45)">Cristian Berna<tspan class="cls-3" x="298.68" y="0">l</tspan></text><text class="cls-4" transform="translate(127.84 89.06)">DISEÑADOR<tspan class="cls-5" x="99.58" y="0" xml:space="preserve"> Y</tspan><tspan x="114.1" y="0" xml:space="preserve"> D</tspan><tspan class="cls-6" x="130.92" y="0">E</tspan><tspan class="cls-7" x="141.21" y="0">S</tspan><tspan class="cls-8" x="151.52" y="0">ARROLLADOR</tspan><tspan class="cls-9" x="267.53" y="0"> </tspan><tspan x="271.36" y="0">WEB</tspan></text></svg>